<svg width="20" height="22" viewBox="0 0 20 22" fill="none" xmlns="http://www.w3.org/2000/svg">
<path d="M1 5.31934H19" stroke="white" stroke-width="1.5" stroke-linecap="round" stroke-linejoin="round"/>
<path d="M7.75 9.76392V16.4306" stroke="white" stroke-width="1.5" stroke-linecap="round" stroke-linejoin="round"/>
<path d="M12.25 9.76392V16.4306" stroke="white" stroke-width="1.5" stroke-linecap="round" stroke-linejoin="round"/>
<path d="M2.125 5.31934L3.25 18.6527C3.25 19.242 3.48705 19.8073 3.90901 20.224C4.33097 20.6408 4.90326 20.8749 5.5 20.8749H14.5C15.0967 20.8749 15.669 20.6408 16.091 20.224C16.5129 19.8073 16.75 19.242 16.75 18.6527L17.875 5.31934" stroke="white" stroke-width="1.5" stroke-linecap="round" stroke-linejoin="round"/>
<path d="M6.625 5.31944V1.98611C6.625 1.69143 6.74353 1.40881 6.95451 1.20044C7.16548 0.992063 7.45163 0.875 7.75 0.875H12.25C12.5484 0.875 12.8345 0.992063 13.0455 1.20044C13.2565 1.40881 13.375 1.69143 13.375 1.98611V5.31944" stroke="white" stroke-width="1.5" stroke-linecap="round" stroke-linejoin="round"/>
</svg>
