<svg width="22" height="22" viewBox="0 0 22 22" fill="none" xmlns="http://www.w3.org/2000/svg">
<path d="M5.44444 14.3333H3.22222C1.99492 14.3333 1 15.3282 1 16.5555V18.7778C1 20.0051 1.99492 21 3.22222 21H5.44444C6.67174 21 7.66667 20.0051 7.66667 18.7778V16.5555C7.66667 15.3282 6.67174 14.3333 5.44444 14.3333Z" stroke="#C4C4C4" stroke-width="1.5" stroke-linecap="round" stroke-linejoin="round"/>
<path d="M18.7777 14.3333H16.5555C15.3282 14.3333 14.3333 15.3282 14.3333 16.5555V18.7778C14.3333 20.0051 15.3282 21 16.5555 21H18.7777C20.005 21 20.9999 20.0051 20.9999 18.7778V16.5555C20.9999 15.3282 20.005 14.3333 18.7777 14.3333Z" stroke="#C4C4C4" stroke-width="1.5" stroke-linecap="round" stroke-linejoin="round"/>
<path d="M12.1111 1H9.88891C8.66161 1 7.66669 1.99492 7.66669 3.22222V5.44444C7.66669 6.67174 8.66161 7.66667 9.88891 7.66667H12.1111C13.3384 7.66667 14.3334 6.67174 14.3334 5.44444V3.22222C14.3334 1.99492 13.3384 1 12.1111 1Z" stroke="#C4C4C4" stroke-width="1.5" stroke-linecap="round" stroke-linejoin="round"/>
<path d="M4.33325 14.3333V13.2222C4.33325 12.6329 4.56738 12.0676 4.98413 11.6509C5.40087 11.2341 5.9661 11 6.55547 11H15.4444C16.0337 11 16.599 11.2341 17.0157 11.6509C17.4325 12.0676 17.6666 12.6329 17.6666 13.2222V14.3333" stroke="#C4C4C4" stroke-width="1.5" stroke-linecap="round" stroke-linejoin="round"/>
<path d="M11 7.66669V11" stroke="#C4C4C4" stroke-width="1.5" stroke-linecap="round" stroke-linejoin="round"/>
</svg>
