<svg width="22" height="22" viewBox="0 0 22 22" fill="none" xmlns="http://www.w3.org/2000/svg">
<path d="M5.44444 14.3333H3.22222C1.99492 14.3333 1 15.3282 1 16.5555V18.7777C1 20.005 1.99492 20.9999 3.22222 20.9999H5.44444C6.67174 20.9999 7.66667 20.005 7.66667 18.7777V16.5555C7.66667 15.3282 6.67174 14.3333 5.44444 14.3333Z" stroke="#8977F7" stroke-width="1.5" stroke-linecap="round" stroke-linejoin="round"/>
<path d="M18.7777 14.3333H16.5555C15.3282 14.3333 14.3333 15.3282 14.3333 16.5555V18.7777C14.3333 20.005 15.3282 20.9999 16.5555 20.9999H18.7777C20.005 20.9999 20.9999 20.005 20.9999 18.7777V16.5555C20.9999 15.3282 20.005 14.3333 18.7777 14.3333Z" stroke="#8977F7" stroke-width="1.5" stroke-linecap="round" stroke-linejoin="round"/>
<path d="M12.1111 1H9.88889C8.66159 1 7.66667 1.99492 7.66667 3.22222V5.44444C7.66667 6.67174 8.66159 7.66667 9.88889 7.66667H12.1111C13.3384 7.66667 14.3333 6.67174 14.3333 5.44444V3.22222C14.3333 1.99492 13.3384 1 12.1111 1Z" stroke="#8977F7" stroke-width="1.5" stroke-linecap="round" stroke-linejoin="round"/>
<path d="M4.33325 14.3333V13.2222C4.33325 12.6329 4.56738 12.0676 4.98413 11.6509C5.40087 11.2341 5.9661 11 6.55547 11H15.4444C16.0337 11 16.599 11.2341 17.0157 11.6509C17.4325 12.0676 17.6666 12.6329 17.6666 13.2222V14.3333" stroke="#8977F7" stroke-width="1.5" stroke-linecap="round" stroke-linejoin="round"/>
<path d="M11 7.66675V11.0001" stroke="#8977F7" stroke-width="1.5" stroke-linecap="round" stroke-linejoin="round"/>
</svg>
